<svg version="1.2" baseProfile="tiny-ps" xmlns="http://www.w3.org/2000/svg" viewBox="0 0 29 29" width="29" height="29">
	<title>Single News - Large Desktop</title>
	<style>
		tspan { white-space:pre }
		.shp0 { fill: #1f4fa1 } 
	</style>
	<g id="Single News - Large Desktop">
		<path id="Subtraction 6" class="shp0" d="M12.07 28.44L12.07 28.44C10.39 28.17 8.78 27.62 7.3 26.78C5.85 25.96 4.56 24.91 3.47 23.65C2.37 22.38 1.52 20.94 0.92 19.38C0.31 17.76 0 16.05 0 14.31C0 12.37 0.38 10.5 1.12 8.74C1.48 7.89 1.93 7.07 2.44 6.31C2.95 5.55 3.54 4.84 4.19 4.19C4.84 3.54 5.55 2.95 6.31 2.44C7.07 1.93 7.89 1.48 8.74 1.12C10.5 0.38 12.37 0 14.31 0C16.24 0 18.11 0.38 19.87 1.12C20.72 1.48 21.54 1.93 22.3 2.44C23.06 2.95 23.77 3.54 24.42 4.19C25.07 4.84 25.66 5.55 26.17 6.31C26.68 7.07 27.13 7.89 27.49 8.74C28.23 10.5 28.61 12.37 28.61 14.31C28.61 16.05 28.3 17.76 27.69 19.38C27.09 20.94 26.24 22.38 25.14 23.65C24.05 24.91 22.76 25.96 21.31 26.78C19.83 27.62 18.22 28.17 16.54 28.44L16.54 18.44L19.87 18.44L20.51 14.31L16.54 14.31L16.54 11.62C16.54 11.11 16.65 10.68 16.86 10.32C17.11 9.91 17.5 9.63 18.01 9.49C18.27 9.42 18.56 9.39 18.87 9.39L20.68 9.39L20.68 5.87C20.66 5.86 19.01 5.59 17.47 5.59C14.09 5.59 12.07 7.67 12.07 11.15L12.07 14.31L8.44 14.31L8.44 18.44L12.07 18.44L12.07 28.44L12.07 28.44Z" />
	</g>
</svg>