<svg xmlns="http://www.w3.org/2000/svg" xmlns:xlink="http://www.w3.org/1999/xlink" width="175.001" height="177.423" viewBox="0 0 175.001 177.423">
  <defs>
    <filter id="Path_146" x="0" y="0" width="175.001" height="177.423" filterUnits="userSpaceOnUse">
      <feOffset dy="10" input="SourceAlpha"/>
      <feGaussianBlur stdDeviation="8.5" result="blur"/>
      <feFlood flood-opacity="0.161"/>
      <feComposite operator="in" in2="blur"/>
      <feComposite in="SourceGraphic"/>
    </filter>
  </defs>
  <g id="Group_322" data-name="Group 322" transform="translate(0.82 -592.5)" style="isolation: isolate">
    <g transform="matrix(1, 0, 0, 1, -0.82, 592.5)" filter="url(#Path_146)">
      <path id="Path_146-2" data-name="Path 146" d="M47.662-864.812l-9.715,3.1a1.613,1.613,0,0,1-2.068-1.2,1.614,1.614,0,0,0-2.091-1.19l-16.25,5.459a1.613,1.613,0,0,1-1.983-2.195l8.655-19.106a1.614,1.614,0,0,0-1.034-2.219l-22-6.17a1.614,1.614,0,0,1-.553-2.829L19.34-905.664a1.613,1.613,0,0,0,.344-2.185l-.316-.463a1.614,1.614,0,0,1,.756-2.417l3.74-1.43a1.612,1.612,0,0,0,1-1.847l-8.453-39.22a1.613,1.613,0,0,1,2.412-1.72l29.337,17.76a1.614,1.614,0,0,0,2.306-.715l11.846-26.151a1.613,1.613,0,0,1,2.823-.212l4.628,7.134a1.614,1.614,0,0,0,2.663.064l4.38-6.088a1.613,1.613,0,0,1,2.879.566l5.954,24.861a1.613,1.613,0,0,0,2.145,1.131l26.3-10.053a1.613,1.613,0,0,1,2.049,2.164l-15.2,34.052a1.613,1.613,0,0,0,.12,1.536l3.782,5.83a1.622,1.622,0,0,0,.518.5l17.868,10.818a1.613,1.613,0,0,1-.345,2.917l-12.745,4.069a1.614,1.614,0,0,0-.917,2.325l14.309,25.568a1.613,1.613,0,0,1-1.844,2.341l-14.627-4.1a1.613,1.613,0,0,0-2,1.929l1.105,4.617a1.613,1.613,0,0,1-2.177,1.869l-23.866-9.736a1.614,1.614,0,0,0-2.083.836l-8.74,19.583a1.613,1.613,0,0,1-2.806.252l-17-24.9a1.612,1.612,0,0,0-1.823-.627" transform="translate(25.5 980.5)" fill="#f5f5ee"/>
    </g>
    <path id="Path_147" data-name="Path 147" d="M252.885-898.91l-50.44,70.1,74.511,30.395Z" transform="translate(-151.243 1515.568)" fill="#91268f"/>
    <path id="Path_148" data-name="Path 148" d="M207.807-913.159,165.288-819.3l84.9-28.522Z" transform="translate(-118.954 1527.951)" fill="#c3996b"/>
    <path id="Path_149" data-name="Path 149" d="M165.2-838.62l17.67,81.988,77.1-24.619Z" transform="translate(-118.876 1463.177)" fill="#d6df22"/>
    <path id="Path_150" data-name="Path 150" d="M187.289-746.635l42.822,62.742,42.577-95.39Z" transform="translate(-138.073 1411.613)" fill="#f05a28"/>
    <path id="Path_151" data-name="Path 151" d="M118.475-782.31,53.822-732.188l109.961,30.843Z" transform="translate(-22.091 1414.244)" fill="#00adef"/>
    <path id="Path_152" data-name="Path 152" d="M358.235-621.737H356.91l-.047,1.433-.573.555.435,7.338-4.521.591.472-7.929-.573-.555-.047-1.433h-4.075l-.044,1.433-.576.555.506,8.5-4.659.61.543-9.106-.573-.555-.048-1.433h-4.074l-.047,1.433-.573.555.574,9.655-4.8.628.613-10.284-.574-.555-.047-1.433h-1.25v-1.148h.013l12.627-6.943,12.629,6.943h.013Zm-12.756-17.536a20.606,20.606,0,0,0-20.606,20.606,20.606,20.606,0,0,0,20.606,20.6,20.605,20.605,0,0,0,20.606-20.6,20.605,20.605,0,0,0-20.606-20.606" transform="translate(-257.632 1289.946)" fill="#fff"/>
  </g>
</svg>
