<svg xmlns="http://www.w3.org/2000/svg" xmlns:xlink="http://www.w3.org/1999/xlink" width="443" height="144.153" viewBox="0 0 443 144.153">
  <defs>
    <filter id="Rectangle_471" x="0" y="0" width="443" height="144.153" filterUnits="userSpaceOnUse">
      <feOffset dy="8" input="SourceAlpha"/>
      <feGaussianBlur stdDeviation="3" result="blur"/>
      <feFlood flood-opacity="0.161"/>
      <feComposite operator="in" in2="blur"/>
      <feComposite in="SourceGraphic"/>
    </filter>
  </defs>
  <g id="Group_211" data-name="Group 211" transform="translate(-267.293 -426.864)">
    <g transform="matrix(1, 0, 0, 1, 267.29, 426.86)" filter="url(#Rectangle_471)">
      <rect id="Rectangle_471-2" data-name="Rectangle 471" width="425" height="126.153" rx="63.076" transform="translate(9 1)" fill="#fff"/>
    </g>
    <g id="Group_202" data-name="Group 202" transform="translate(384.853 463.002)">
      <path id="Path_156" data-name="Path 156" d="M147.562,73.64a13.38,13.38,0,0,1,13.544-13.25,13.558,13.558,0,0,1,8.369,2.863,2.113,2.113,0,0,1,.405,2.972,2.138,2.138,0,0,1-2.975.33,9.53,9.53,0,0,0-5.8-1.982,9.1,9.1,0,0,0-6.606,2.68,8.7,8.7,0,0,0,0,12.7,9.1,9.1,0,0,0,6.606,2.68,10.118,10.118,0,0,0,5.029-1.395V76.21h-5.248a2.115,2.115,0,0,1-2.092-2.092,2.06,2.06,0,0,1,2.092-2.056h7.3a2.07,2.07,0,0,1,2.129,2.056V82.23a3.189,3.189,0,0,1-.109.624c-.038.073-.038.11-.074.183v.036a1.744,1.744,0,0,1-.7.881,13.541,13.541,0,0,1-8.332,2.863A13.343,13.343,0,0,1,147.562,73.64Z" transform="translate(-147.562 -60.39)" fill="#0060a6"/>
      <path id="Path_157" data-name="Path 157" d="M191.217,83.682a2.025,2.025,0,0,1-1.285,2.569,3.223,3.223,0,0,1-.806.11h-.038a2.679,2.679,0,0,1-1.432-.4,3.615,3.615,0,0,1-1.174-1.285,9.873,9.873,0,0,1-.771-4.4,3.106,3.106,0,0,0-.441-1.578,3.4,3.4,0,0,0-1.1-1.064,7.016,7.016,0,0,0-2.056-.881h-4.331v7.965a2.045,2.045,0,0,1-2.056,2.02,2.013,2.013,0,0,1-2.018-2.02V63.054a1.991,1.991,0,0,1,2.018-2.02h6.57a7.849,7.849,0,0,1,4.992,13.912,5.687,5.687,0,0,1,1.285,1.358,6.95,6.95,0,0,1,1.211,3.964,9.265,9.265,0,0,0,.146,2.165A1.975,1.975,0,0,1,191.217,83.682Zm-5.138-14.755A3.783,3.783,0,0,0,182.3,65.11h-4.514v7.56H182.3A3.768,3.768,0,0,0,186.079,68.927Z" transform="translate(-143.942 -60.301)" fill="#0060a6"/>
      <path id="Path_158" data-name="Path 158" d="M194.955,84.709V63.054a1.99,1.99,0,0,1,2.017-2.02h12a2.036,2.036,0,0,1,2.017,2.02,2.068,2.068,0,0,1-2.017,2.056h-9.948v6.716h8.552a2.038,2.038,0,0,1,0,4.076h-8.552v6.753h9.948a2.037,2.037,0,0,1,0,4.074H197.084c-.075,0-.075-.036-.075-.036l-.036.036A2.012,2.012,0,0,1,194.955,84.709Z" transform="translate(-141.001 -60.301)" fill="#0060a6"/>
      <path id="Path_159" data-name="Path 159" d="M214.717,84.709V63.054a1.991,1.991,0,0,1,2.018-2.02h12a2.036,2.036,0,0,1,2.017,2.02,2.069,2.069,0,0,1-2.017,2.056H218.79v6.716h8.553a2.038,2.038,0,0,1,0,4.076H218.79v6.753h9.949a2.037,2.037,0,0,1,0,4.074H216.846c-.073,0-.073-.036-.073-.036l-.038.036A2.013,2.013,0,0,1,214.717,84.709Z" transform="translate(-138.265 -60.301)" fill="#0060a6"/>
      <path id="Path_160" data-name="Path 160" d="M234.48,84.686V63.214a2.018,2.018,0,1,1,4.037,0V73.748L250.409,61.82a1.993,1.993,0,0,1,2.863,0,2.059,2.059,0,0,1,0,2.863L245.2,72.722,253.346,83.4a1.966,1.966,0,0,1-.294,2.827,1.864,1.864,0,0,1-1.285.477,1.99,1.99,0,0,1-1.505-.734l-7.927-10.387-3.818,3.89v5.212a2.018,2.018,0,1,1-4.037,0Z" transform="translate(-135.529 -60.278)" fill="#0060a6"/>
      <path id="Path_161" data-name="Path 161" d="M267.493,73.6a13.475,13.475,0,0,1,13.47-13.214,13.718,13.718,0,0,1,8.478,2.863,2.107,2.107,0,0,1-2.567,3.34,9.147,9.147,0,0,0-5.911-2.02,9.719,9.719,0,0,0-6.606,2.642,9.057,9.057,0,0,0-2.679,6.388,8.926,8.926,0,0,0,2.679,6.387,9.714,9.714,0,0,0,6.606,2.642,9.222,9.222,0,0,0,5.911-2.018,2.227,2.227,0,0,1,2.937.4,2.164,2.164,0,0,1-.37,2.936,13.725,13.725,0,0,1-8.478,2.863A13.426,13.426,0,0,1,267.493,73.6Z" transform="translate(-130.959 -60.39)" fill="#0060a6"/>
      <path id="Path_162" data-name="Path 162" d="M293.995,84.709V63.054a1.99,1.99,0,0,1,2.017-2.02h12a2.036,2.036,0,0,1,2.016,2.02,2.069,2.069,0,0,1-2.016,2.056h-9.949v6.716h8.552a2.038,2.038,0,0,1,0,4.076h-8.552v6.753h9.949a2.037,2.037,0,0,1,0,4.074H296.123c-.073,0-.073-.036-.073-.036l-.038.036A2.013,2.013,0,0,1,293.995,84.709Z" transform="translate(-127.29 -60.301)" fill="#0060a6"/>
      <path id="Path_163" data-name="Path 163" d="M317.791,84.678a2,2,0,1,1-4,0V63.316a1.981,1.981,0,0,1,.807-1.688,2.02,2.02,0,0,1,2.788.439l11.856,16.408V63.353a2,2,0,0,1,1.984-1.982,2.03,2.03,0,0,1,2.018,1.982V84.678a2.038,2.038,0,0,1-2.018,2.02,1.993,1.993,0,0,1-1.506-.734,1.018,1.018,0,0,1-.185-.221l-11.744-16.3Z" transform="translate(-124.55 -60.27)" fill="#0060a6"/>
      <path id="Path_164" data-name="Path 164" d="M353.6,65.11h-5.837v19.6a1.99,1.99,0,0,1-2.018,2.02,2.014,2.014,0,0,1-2.02-2.02V65.11h-5.8a2.045,2.045,0,0,1-2.02-2.056,1.991,1.991,0,0,1,2.02-2.02H353.6a2.014,2.014,0,0,1,2.02,2.02A2.07,2.07,0,0,1,353.6,65.11Z" transform="translate(-121.488 -60.301)" fill="#0060a6"/>
      <path id="Path_165" data-name="Path 165" d="M376.239,83.682a2.025,2.025,0,0,1-1.285,2.569,3.225,3.225,0,0,1-.807.11h-.035a2.677,2.677,0,0,1-1.432-.4,3.6,3.6,0,0,1-1.174-1.285,9.872,9.872,0,0,1-.772-4.4,3.129,3.129,0,0,0-.439-1.578,3.394,3.394,0,0,0-1.1-1.064,7.021,7.021,0,0,0-2.057-.881h-4.331v7.965a2.044,2.044,0,0,1-2.055,2.02,2.013,2.013,0,0,1-2.02-2.02V63.054a1.991,1.991,0,0,1,2.02-2.02h6.57a7.85,7.85,0,0,1,4.992,13.912A5.711,5.711,0,0,1,373.6,76.3a6.95,6.95,0,0,1,1.21,3.964,9.327,9.327,0,0,0,.146,2.165A1.973,1.973,0,0,1,376.239,83.682ZM371.1,68.927a3.782,3.782,0,0,0-3.781-3.817h-4.515v7.56h4.515A3.767,3.767,0,0,0,371.1,68.927Z" transform="translate(-118.328 -60.301)" fill="#0060a6"/>
      <path id="Path_166" data-name="Path 166" d="M379.978,84.709V63.054a1.989,1.989,0,0,1,2.016-2.02h12a2.035,2.035,0,0,1,2.016,2.02A2.068,2.068,0,0,1,394,65.11h-9.948v6.716H392.6a2.038,2.038,0,0,1,0,4.076h-8.551v6.753H394a2.037,2.037,0,0,1,0,4.074H382.106c-.074,0-.074-.036-.074-.036l-.038.036A2.012,2.012,0,0,1,379.978,84.709Z" transform="translate(-115.387 -60.301)" fill="#0060a6"/>
    </g>
    <path id="Path_258" data-name="Path 258" d="M80.24,41.576a35.536,35.536,0,1,0,35.538,35.537A35.536,35.536,0,0,0,80.24,41.576Zm22,30.243H99.955l-.08,2.471-.99.956.75,12.655-7.793,1.021.813-13.675-.99-.956-.081-2.471H84.559l-.08,2.471-.989.956L84.359,89.9l-8.031,1.049.933-15.706-.988-.956-.081-2.471H69.163l-.08,2.471-.989.956L69.086,91.9,60.81,92.982l1.057-17.736-.988-.956-.084-2.471H58.642V69.84h.02L80.438,57.866l21.78,11.974h.022Z" transform="translate(260.241 413.508)" fill="#0060a6"/>
    <g id="Group_203" data-name="Group 203" transform="translate(388.457 504.635)">
      <path id="Path_168" data-name="Path 168" d="M150.731,97.49a.39.39,0,0,1,.37-.388h5.842a.4.4,0,0,1,0,.791h-5.422v4.469h4.744a.4.4,0,1,1,0,.791h-4.744v4.858a.4.4,0,0,1-.4.387.392.392,0,0,1-.387-.387Z" transform="translate(-150.731 -96.94)" fill="#0060a6"/>
      <path id="Path_169" data-name="Path 169" d="M165.1,96.96a5.736,5.736,0,1,1-5.454,5.729A5.566,5.566,0,0,1,165.1,96.96Zm0,10.667a4.938,4.938,0,1,0-4.664-4.939A4.8,4.8,0,0,0,165.1,107.627Z" transform="translate(-149.497 -96.96)" fill="#0060a6"/>
      <path id="Path_170" data-name="Path 170" d="M178.833,105.849a2.041,2.041,0,0,0-.92-1.711,3.637,3.637,0,0,0-1.307-.565c-.049-.015-.065-.032-.082-.032h-2.742v4.471a.4.4,0,0,1-.791,0V97.49a.4.4,0,0,1,.355-.388h3.227a3.227,3.227,0,0,1,1.356,6.149,1.62,1.62,0,0,0,.161.081,2.855,2.855,0,0,1,1.518,2.517,4.382,4.382,0,0,0,.145,1.308.582.582,0,0,0,.163.273.425.425,0,0,1,.436.26.44.44,0,0,1-.26.516,1.712,1.712,0,0,1-.194.016h-.032a.9.9,0,0,1-.726-.517A4,4,0,0,1,178.833,105.849Zm-2.26-7.955h-2.791v4.873h2.856a2.437,2.437,0,0,0-.065-4.873Z" transform="translate(-147.649 -96.94)" fill="#0060a6"/>
      <path id="Path_171" data-name="Path 171" d="M193.856,96.96A5.992,5.992,0,0,1,197.5,98.2a.4.4,0,0,1,.065.565.377.377,0,0,1-.55.08,5.15,5.15,0,0,0-3.163-1.1,4.94,4.94,0,1,0,0,9.876,4.8,4.8,0,0,0,3.131-1.1.392.392,0,0,1,.565.1.379.379,0,0,1-.048.566,5.979,5.979,0,0,1-3.648,1.226,5.731,5.731,0,1,1,0-11.458Z" transform="translate(-145.574 -96.96)" fill="#0060a6"/>
      <path id="Path_172" data-name="Path 172" d="M205.141,96.96a5.736,5.736,0,1,1-5.454,5.729A5.566,5.566,0,0,1,205.141,96.96Zm0,10.667a4.938,4.938,0,1,0-4.664-4.939A4.8,4.8,0,0,0,205.141,107.627Z" transform="translate(-143.954 -96.96)" fill="#0060a6"/>
      <path id="Path_173" data-name="Path 173" d="M213.683,98.758v9.248a.387.387,0,1,1-.774,0V97.645a.392.392,0,0,1,.146-.436.4.4,0,0,1,.548.1l6.843,9.489V97.6a.4.4,0,0,1,.79,0v10.41a.4.4,0,0,1-.4.387.371.371,0,0,1-.306-.145c-.016-.017-.049-.033-.065-.065Z" transform="translate(-142.126 -96.935)" fill="#0060a6"/>
      <path id="Path_174" data-name="Path 174" d="M227.737,97.893h-3.405a.4.4,0,0,1,0-.791h7.584a.4.4,0,0,1,0,.791h-3.4v10.118a.388.388,0,0,1-.775,0Z" transform="translate(-140.595 -96.94)" fill="#0060a6"/>
      <path id="Path_175" data-name="Path 175" d="M234.956,97.49a.391.391,0,0,1,.387-.388h5.81a.4.4,0,0,1,0,.791h-5.408v4.469h4.73a.4.4,0,0,1,0,.791h-4.73v4.454h5.408a.387.387,0,0,1,.387.4.382.382,0,0,1-.387.387H235.31a.387.387,0,0,1-.354-.387Z" transform="translate(-139.071 -96.94)" fill="#0060a6"/>
      <path id="Path_176" data-name="Path 176" d="M253.135,98.711l-3.616,5.018a.372.372,0,0,1-.322.178h-.033a.365.365,0,0,1-.338-.178l-3.616-5v9.281a.395.395,0,0,1-.789,0V97.548a.368.368,0,0,1,.161-.306c0-.017.015-.017.033-.033a.4.4,0,0,1,.546.1l4.021,5.568,4-5.568a.4.4,0,0,1,.548-.1.683.683,0,0,1,.113.13.5.5,0,0,1,.065.209v10.458a.393.393,0,0,1-.387.387.382.382,0,0,1-.387-.387Z" transform="translate(-137.761 -96.935)" fill="#0060a6"/>
      <path id="Path_177" data-name="Path 177" d="M256.733,97.49a.394.394,0,0,1,.387-.388h3.2a3.22,3.22,0,0,1,0,6.439l-2.79.032v4.439a.4.4,0,0,1-.405.387.393.393,0,0,1-.387-.387Zm3.583,5.293a2.469,2.469,0,0,0,2.437-2.453,2.444,2.444,0,0,0-2.437-2.436h-2.79v4.89Z" transform="translate(-136.056 -96.94)" fill="#0060a6"/>
      <path id="Path_178" data-name="Path 178" d="M271.072,96.96a5.736,5.736,0,1,1-5.454,5.729A5.563,5.563,0,0,1,271.072,96.96Zm0,10.667a4.938,4.938,0,1,0-4.664-4.939A4.8,4.8,0,0,0,271.072,107.627Z" transform="translate(-134.826 -96.96)" fill="#0060a6"/>
      <path id="Path_179" data-name="Path 179" d="M284.807,105.849a2.037,2.037,0,0,0-.919-1.711,3.644,3.644,0,0,0-1.307-.565c-.049-.015-.065-.032-.083-.032h-2.741v4.471a.4.4,0,0,1-.791,0V97.49a.4.4,0,0,1,.355-.388h3.226a3.228,3.228,0,0,1,1.357,6.149,1.588,1.588,0,0,0,.159.081,2.856,2.856,0,0,1,1.519,2.517,4.385,4.385,0,0,0,.145,1.308.562.562,0,0,0,.163.273.427.427,0,0,1,.436.26.441.441,0,0,1-.261.516,1.684,1.684,0,0,1-.194.016h-.031a.9.9,0,0,1-.728-.517A4,4,0,0,1,284.807,105.849Zm-2.26-7.955h-2.79v4.873h2.855a2.437,2.437,0,0,0-.065-4.873Z" transform="translate(-132.979 -96.94)" fill="#0060a6"/>
      <path id="Path_180" data-name="Path 180" d="M295.352,105.472H290.2l-1,2.663a.4.4,0,0,1-.371.258c-.031,0-.1-.016-.145-.016a.415.415,0,0,1-.227-.517l3.922-10.472a.431.431,0,0,1,.387-.242.4.4,0,0,1,.387.242l3.922,10.472a.4.4,0,0,1-.208.517c-.065,0-.1.016-.147.016a.414.414,0,0,1-.371-.258Zm-4.857-.79h4.567l-2.277-6.068Z" transform="translate(-131.668 -96.934)" fill="#0060a6"/>
      <path id="Path_181" data-name="Path 181" d="M304.941,105.849a2.039,2.039,0,0,0-.918-1.711,3.648,3.648,0,0,0-1.308-.565c-.049-.015-.064-.032-.082-.032h-2.741v4.471a.4.4,0,0,1-.405.387.392.392,0,0,1-.386-.387V97.49a.4.4,0,0,1,.355-.388h3.226a3.228,3.228,0,0,1,1.356,6.149,1.5,1.5,0,0,0,.161.081,2.858,2.858,0,0,1,1.519,2.517,4.379,4.379,0,0,0,.145,1.308.561.561,0,0,0,.163.273.425.425,0,0,1,.435.26.441.441,0,0,1-.26.516,1.682,1.682,0,0,1-.194.016h-.031a.9.9,0,0,1-.728-.517A3.993,3.993,0,0,1,304.941,105.849Zm-2.259-7.955h-2.79v4.873h2.855a2.437,2.437,0,0,0-.065-4.873Z" transform="translate(-130.191 -96.94)" fill="#0060a6"/>
      <path id="Path_182" data-name="Path 182" d="M312.054,102.97l-3.793-5.181a.418.418,0,0,1,.082-.548.372.372,0,0,1,.55.064l3.533,4.858,3.551-4.858a.37.37,0,0,1,.548-.064.386.386,0,0,1,.082.548l-3.777,5.149v5.067a.382.382,0,0,1-.387.387.393.393,0,0,1-.387-.387Z" transform="translate(-128.932 -96.934)" fill="#0060a6"/>
      <path id="Path_183" data-name="Path 183" d="M329.233,96.96A6,6,0,0,1,332.88,98.2a.394.394,0,0,1,.064.565.376.376,0,0,1-.549.08,5.148,5.148,0,0,0-3.161-1.1,4.94,4.94,0,1,0,0,9.876,4.809,4.809,0,0,0,3.131-1.1.392.392,0,0,1,.565.1.38.38,0,0,1-.049.566,5.983,5.983,0,0,1-3.646,1.226,5.731,5.731,0,1,1,0-11.458Z" transform="translate(-126.833 -96.96)" fill="#0060a6"/>
      <path id="Path_184" data-name="Path 184" d="M335.8,97.49a.395.395,0,0,1,.789,0v6.341a3.777,3.777,0,0,0,7.554,0V97.49a.4.4,0,0,1,.791,0v6.341a4.567,4.567,0,1,1-9.134,0Z" transform="translate(-125.111 -96.94)" fill="#0060a6"/>
      <path id="Path_185" data-name="Path 185" d="M348.15,108.4h-.032a.392.392,0,0,1-.387-.387V97.49a.392.392,0,0,1,.387-.388.4.4,0,0,1,.4.388v10.117h5.408a.4.4,0,0,1,.4.4.4.4,0,0,1-.4.387Z" transform="translate(-123.459 -96.94)" fill="#0060a6"/>
      <path id="Path_186" data-name="Path 186" d="M358.38,97.893h-3.4a.4.4,0,0,1,0-.791h7.584a.4.4,0,0,1,0,.791h-3.4v10.118a.388.388,0,0,1-.776,0Z" transform="translate(-122.51 -96.94)" fill="#0060a6"/>
      <path id="Path_187" data-name="Path 187" d="M365.612,97.49a.4.4,0,0,1,.79,0v6.341a3.776,3.776,0,1,0,7.552,0V97.49a.4.4,0,0,1,.792,0v6.341a4.567,4.567,0,1,1-9.135,0Z" transform="translate(-120.983 -96.94)" fill="#0060a6"/>
      <path id="Path_188" data-name="Path 188" d="M383.484,105.849a2.041,2.041,0,0,0-.92-1.711,3.632,3.632,0,0,0-1.308-.565c-.049-.015-.064-.032-.08-.032h-2.744v4.471a.4.4,0,0,1-.791,0V97.49A.4.4,0,0,1,378,97.1h3.229a3.227,3.227,0,0,1,1.355,6.149,1.413,1.413,0,0,0,.162.081,2.856,2.856,0,0,1,1.516,2.517,4.381,4.381,0,0,0,.145,1.308.6.6,0,0,0,.163.273.421.421,0,0,1,.435.26.44.44,0,0,1-.257.516,1.743,1.743,0,0,1-.194.016h-.033a.9.9,0,0,1-.725-.517A3.993,3.993,0,0,1,383.484,105.849Zm-2.259-7.955h-2.793v4.873h2.858a2.437,2.437,0,0,0-.065-4.873Z" transform="translate(-119.318 -96.94)" fill="#0060a6"/>
      <path id="Path_189" data-name="Path 189" d="M387.761,97.49a.391.391,0,0,1,.387-.388h5.81a.4.4,0,0,1,0,.791H388.55v4.469h4.729a.4.4,0,0,1,0,.791H388.55v4.454h5.408a.388.388,0,0,1,.387.4.383.383,0,0,1-.387.387h-5.844a.386.386,0,0,1-.353-.387Z" transform="translate(-117.917 -96.94)" fill="#0060a6"/>
    </g>
  </g>
</svg>
