<svg xmlns="http://www.w3.org/2000/svg" width="28.877" height="28.871" viewBox="0 0 28.877 28.871">
  <path id="Subtraction_3" data-name="Subtraction 3" d="M14.412,28.871c-3.8,0-7.3-.012-7.648-.027a10.169,10.169,0,0,1-2.1-.277,6.112,6.112,0,0,1-3.941-3.22,7.188,7.188,0,0,1-.688-2.79C.009,22.22,0,20.625,0,14.43c0-.737,0-1.407,0-2.015,0-1.065,0-1.944,0-2.677A26.97,26.97,0,0,1,.127,5.514l.005-.036A6.231,6.231,0,0,1,1.8,1.965,5.784,5.784,0,0,1,3.464.75,7.169,7.169,0,0,1,6.31.036C6.645.007,8.317,0,14.442,0h4.7a27.123,27.123,0,0,1,4.221.127L23.4.133A6.272,6.272,0,0,1,26.919,1.8,5.716,5.716,0,0,1,28.155,3.5a7.032,7.032,0,0,1,.7,2.762c.02.263.027,4.565.027,8.168s-.007,7.912-.027,8.175a7.147,7.147,0,0,1-.682,2.735,6.034,6.034,0,0,1-3.941,3.228,9.882,9.882,0,0,1-2.173.284C21.661,28.868,17.1,28.871,14.412,28.871Zm.024-25.095c-.3,0-.567,0-.814,0-2.112,0-2.542.015-3.581.062a7.883,7.883,0,0,0-2.587.5A5.181,5.181,0,0,0,5.566,5.566,5.225,5.225,0,0,0,4.335,7.453a7.81,7.81,0,0,0-.495,2.589c-.053,1.159-.065,1.542-.065,4.394s.012,3.235.065,4.4a7.9,7.9,0,0,0,.495,2.587,5.471,5.471,0,0,0,3.117,3.118,7.906,7.906,0,0,0,2.587.5c1.133.051,1.51.063,4.4.063s3.262-.012,4.394-.063a7.9,7.9,0,0,0,2.589-.5,5.469,5.469,0,0,0,3.118-3.118,7.954,7.954,0,0,0,.5-2.587c.052-1.166.064-1.549.064-4.4s-.012-3.229-.064-4.394a7.934,7.934,0,0,0-.5-2.587,5.454,5.454,0,0,0-3.119-3.118,7.9,7.9,0,0,0-2.59-.5C17.667,3.788,17.285,3.776,14.436,3.776Zm0,19.4c-2.86,0-3.2-.011-4.31-.061a5.959,5.959,0,0,1-1.979-.367,3.53,3.53,0,0,1-2.023-2.023,5.882,5.882,0,0,1-.367-1.979c-.051-1.121-.062-1.458-.062-4.31s.011-3.184.062-4.306a5.9,5.9,0,0,1,.367-1.979,3.257,3.257,0,0,1,.8-1.226,3.285,3.285,0,0,1,1.226-.8,5.882,5.882,0,0,1,1.979-.367c1-.045,1.37-.058,3.352-.059l.958,0c2.869,0,3.2.011,4.307.063a5.888,5.888,0,0,1,1.979.367A3.528,3.528,0,0,1,22.747,8.15a5.893,5.893,0,0,1,.368,1.979c.051,1.124.061,1.462.061,4.306s-.011,3.182-.061,4.306a5.858,5.858,0,0,1-.368,1.979,3.528,3.528,0,0,1-2.023,2.023,5.889,5.889,0,0,1-1.979.367C17.629,23.16,17.294,23.171,14.438,23.171Zm0-14.208-.007,0a4.061,4.061,0,1,0,.007,0Zm5.69-1.5-.005,0a.924.924,0,1,0,.005,0Zm-5.69,10.525a3.554,3.554,0,1,1,3.553-3.555A3.559,3.559,0,0,1,14.438,17.991Z" fill="#1f4fa1"/>
</svg>
