<svg xmlns="http://www.w3.org/2000/svg" width="280.662" height="56.382" viewBox="0 0 280.662 56.382">
  <g id="Group_93" data-name="Group 93" transform="translate(-49.337 -1749.507)">
    <path id="Path_190" data-name="Path 190" d="M1431.422,85.19a28.191,28.191,0,1,0,28.189,28.189A28.193,28.193,0,0,0,1431.422,85.19Zm17.451,23.989h-1.814l-.066,1.96-.785.762.6,10.039-6.181.809.646-10.848-.783-.762-.066-1.96h-5.574l-.063,1.96-.785.762.691,11.625-6.375.832.74-12.458-.782-.762-.068-1.96h-5.574l-.063,1.96-.784.762.784,13.209-6.563.858.84-14.067-.785-.762-.068-1.96h-1.709v-1.568h.015l17.276-9.5,17.273,9.5h.021v1.568Z" transform="translate(-1353.893 1664.317)" fill="#fff"/>
    <g id="Group_45" data-name="Group 45" transform="translate(115.837 1757.677)">
      <path id="Path_191" data-name="Path 191" d="M223.01,160.288a7.955,7.955,0,0,1,8.053-7.878,8.066,8.066,0,0,1,4.975,1.7,1.244,1.244,0,1,1-1.527,1.964,5.672,5.672,0,0,0-3.448-1.178,5.412,5.412,0,0,0-3.928,1.593,5.17,5.17,0,0,0,0,7.55,5.416,5.416,0,0,0,3.928,1.593,6.018,6.018,0,0,0,2.99-.831v-2.99h-3.12a1.258,1.258,0,0,1-1.244-1.244,1.226,1.226,0,0,1,1.244-1.223h4.343a1.23,1.23,0,0,1,1.265,1.223v4.822a1.886,1.886,0,0,1-.066.371c-.021.043-.021.066-.043.109v.021a1.039,1.039,0,0,1-.415.524,8.051,8.051,0,0,1-4.954,1.7A7.924,7.924,0,0,1,223.01,160.288Z" transform="translate(-223.01 -152.41)" fill="#fff"/>
      <path id="Path_192" data-name="Path 192" d="M326.855,168.117a1.2,1.2,0,0,1-.765,1.527,1.946,1.946,0,0,1-.481.066h-.021a1.577,1.577,0,0,1-.852-.241,2.142,2.142,0,0,1-.7-.765,5.874,5.874,0,0,1-.458-2.618,1.836,1.836,0,0,0-.262-.939,2.032,2.032,0,0,0-.656-.633,4.185,4.185,0,0,0-1.223-.524h-2.575v4.735a1.215,1.215,0,0,1-1.222,1.2,1.2,1.2,0,0,1-1.2-1.2V155.851a1.184,1.184,0,0,1,1.2-1.2h3.906a4.668,4.668,0,0,1,4.671,4.692,4.618,4.618,0,0,1-1.7,3.578,3.457,3.457,0,0,1,.765.807,4.131,4.131,0,0,1,.72,2.358,5.46,5.46,0,0,0,.087,1.287A1.182,1.182,0,0,1,326.855,168.117Zm-3.054-8.773a2.25,2.25,0,0,0-2.247-2.27H318.87v4.5h2.684A2.24,2.24,0,0,0,323.8,159.344Z" transform="translate(-298.31 -154.215)" fill="#fff"/>
      <path id="Path_193" data-name="Path 193" d="M390.58,168.737V155.861a1.184,1.184,0,0,1,1.2-1.2h7.135a1.212,1.212,0,0,1,1.2,1.2,1.231,1.231,0,0,1-1.2,1.223H393v3.994h5.084a1.212,1.212,0,0,1,0,2.424H393v4.015h5.915a1.212,1.212,0,0,1,0,2.424h-7.071c-.043,0-.043-.023-.043-.023l-.021.023A1.2,1.2,0,0,1,390.58,168.737Z" transform="translate(-358.063 -154.223)" fill="#fff"/>
      <path id="Path_194" data-name="Path 194" d="M459.52,168.737V155.861a1.184,1.184,0,0,1,1.2-1.2h7.137a1.212,1.212,0,0,1,1.2,1.2,1.232,1.232,0,0,1-1.2,1.223h-5.915v3.994h5.084a1.212,1.212,0,0,1,0,2.424h-5.084v4.015h5.915a1.212,1.212,0,0,1,0,2.424h-7.071c-.045,0-.045-.023-.045-.023l-.021.023A1.2,1.2,0,0,1,459.52,168.737Z" transform="translate(-413.625 -154.223)" fill="#fff"/>
      <path id="Path_195" data-name="Path 195" d="M528.47,169.188V156.421a1.2,1.2,0,1,1,2.4,0v6.264l7.071-7.093a1.187,1.187,0,0,1,1.7,0,1.226,1.226,0,0,1,0,1.7l-4.8,4.78,4.845,6.349a1.167,1.167,0,0,1-.175,1.68,1.114,1.114,0,0,1-.764.283,1.181,1.181,0,0,1-.895-.437l-4.714-6.177-2.27,2.313v3.1a1.2,1.2,0,0,1-2.4,0Z" transform="translate(-469.195 -154.675)" fill="#fff"/>
      <path id="Path_196" data-name="Path 196" d="M639.13,160.267a8.012,8.012,0,0,1,8.011-7.857,8.162,8.162,0,0,1,5.041,1.7,1.254,1.254,0,0,1-1.529,1.987,5.438,5.438,0,0,0-3.514-1.2,5.772,5.772,0,0,0-3.928,1.572,5.383,5.383,0,0,0-1.593,3.8,5.308,5.308,0,0,0,1.593,3.8,5.772,5.772,0,0,0,3.928,1.572,5.483,5.483,0,0,0,3.514-1.2,1.325,1.325,0,0,1,1.747.241,1.292,1.292,0,0,1-.217,1.746,8.162,8.162,0,0,1-5.041,1.7A7.985,7.985,0,0,1,639.13,160.267Z" transform="translate(-558.382 -152.41)" fill="#fff"/>
      <path id="Path_197" data-name="Path 197" d="M734.072,154.754a8.015,8.015,0,0,1,0,11.041,7.148,7.148,0,0,1-5.216,2.334,7.371,7.371,0,0,1-5.346-2.334,8.136,8.136,0,0,1,0-11.041,7.285,7.285,0,0,1,5.346-2.334A7.052,7.052,0,0,1,734.072,154.754Zm-.283,5.521a5.653,5.653,0,0,0-1.485-3.819,4.711,4.711,0,0,0-6.984,0,5.554,5.554,0,0,0-1.485,3.819,5.453,5.453,0,0,0,1.485,3.8,4.664,4.664,0,0,0,6.984,0A5.55,5.55,0,0,0,733.789,160.275Z" transform="translate(-624.647 -152.418)" fill="#fff"/>
      <path id="Path_198" data-name="Path 198" d="M826.827,155.861v12.875a1.229,1.229,0,0,1-1.223,1.2,1.2,1.2,0,0,1-1.2-1.2v-9.188l-3.141,4.364a1.192,1.192,0,0,1-.982.5h-.043a1.224,1.224,0,0,1-1-.5l-3.121-4.364v9.188a1.212,1.212,0,0,1-2.423,0V155.861a1.211,1.211,0,0,1,1.2-1.2h.066a1.182,1.182,0,0,1,.961.5l4.343,6.023,4.343-6.023a1.191,1.191,0,0,1,.982-.5h.023A1.245,1.245,0,0,1,826.827,155.861Z" transform="translate(-699.069 -154.223)" fill="#fff"/>
      <path id="Path_199" data-name="Path 199" d="M918.131,155.861v12.875a1.23,1.23,0,0,1-1.223,1.2,1.2,1.2,0,0,1-1.2-1.2v-9.188l-3.144,4.364a1.192,1.192,0,0,1-.982.5h-.045a1.23,1.23,0,0,1-1-.5l-3.12-4.364v9.188a1.212,1.212,0,0,1-2.424,0V155.861a1.211,1.211,0,0,1,1.2-1.2h.066a1.182,1.182,0,0,1,.961.5l4.343,6.023,4.343-6.023a1.192,1.192,0,0,1,.982-.5h.023A1.244,1.244,0,0,1,918.131,155.861Z" transform="translate(-772.652 -154.223)" fill="#fff"/>
      <path id="Path_200" data-name="Path 200" d="M999.607,169.938a6.3,6.3,0,0,1-6.307-6.307v-7.77a1.183,1.183,0,0,1,1.2-1.2,1.215,1.215,0,0,1,1.222,1.2v7.77a3.885,3.885,0,0,0,7.77,0v-7.77a1.2,1.2,0,0,1,1.223-1.2,1.185,1.185,0,0,1,1.2,1.2v7.77A6.313,6.313,0,0,1,999.607,169.938Z" transform="translate(-843.825 -154.223)" fill="#fff"/>
      <path id="Path_201" data-name="Path 201" d="M1079.9,169.375a1.19,1.19,0,1,1-2.379,0v-12.7a1.181,1.181,0,0,1,.48-1,1.2,1.2,0,0,1,1.659.262l7.05,9.755V156.7a1.187,1.187,0,0,1,1.178-1.178,1.207,1.207,0,0,1,1.2,1.178v12.679a1.211,1.211,0,0,1-1.2,1.2,1.181,1.181,0,0,1-.895-.437.54.54,0,0,1-.109-.132l-6.984-9.689Z" transform="translate(-911.703 -154.862)" fill="#fff"/>
      <path id="Path_202" data-name="Path 202" d="M1160.98,155.861a1.184,1.184,0,0,1,1.2-1.2,1.216,1.216,0,0,1,1.222,1.2v12.875a1.215,1.215,0,0,1-1.222,1.2,1.184,1.184,0,0,1-1.2-1.2Z" transform="translate(-978.967 -154.223)" fill="#fff"/>
      <path id="Path_203" data-name="Path 203" d="M1202.312,157.074h-3.469v11.655a1.184,1.184,0,0,1-1.2,1.2,1.2,1.2,0,0,1-1.2-1.2V157.074h-3.449a1.216,1.216,0,0,1-1.2-1.223,1.184,1.184,0,0,1,1.2-1.2h9.319a1.2,1.2,0,0,1,1.2,1.2A1.229,1.229,0,0,1,1202.312,157.074Z" transform="translate(-1003.798 -154.215)" fill="#fff"/>
      <path id="Path_204" data-name="Path 204" d="M1277.519,157.367l-4.473,6.132v5.891a1.184,1.184,0,0,1-1.2,1.2,1.212,1.212,0,0,1-1.2-1.2V163.5l-4.43-6.132a1.148,1.148,0,0,1,.241-1.659,1.165,1.165,0,0,1,1.659.262l3.732,5.107,3.732-5.107a1.2,1.2,0,0,1,1.942,1.4Z" transform="translate(-1063.577 -154.879)" fill="#fff"/>
    </g>
    <g id="Group_46" data-name="Group 46" transform="translate(115.837 1783.102)">
      <path id="Path_205" data-name="Path 205" d="M1702.616,152.97a7.756,7.756,0,1,1-7.376,7.747A7.528,7.528,0,0,1,1702.616,152.97Zm0,14.426a6.677,6.677,0,1,0-6.307-6.677A6.5,6.5,0,0,0,1702.616,167.4Z" transform="translate(-1695.24 -152.97)" fill="#fff"/>
      <path id="Path_206" data-name="Path 206" d="M1816.82,154.624a.526.526,0,0,1,.5-.524h7.9a.535.535,0,0,1,0,1.069h-7.333v6.045h6.417a.535.535,0,1,1,0,1.069h-6.417v6.569a.535.535,0,0,1-1.069,0Z" transform="translate(-1793.227 -153.881)" fill="#fff"/>
      <path id="Path_207" data-name="Path 207" d="M1970.883,156.549l-4.888,6.788a.506.506,0,0,1-.437.241h-.042a.492.492,0,0,1-.458-.241l-4.889-6.767V169.12a.535.535,0,0,1-1.069,0V154.978a.49.49,0,0,1,.219-.413c0-.023.021-.023.042-.045a.551.551,0,0,1,.743.132l5.434,7.529,5.412-7.529a.546.546,0,0,1,.741-.132,1.1,1.1,0,0,1,.153.175.722.722,0,0,1,.088.283V169.12a.533.533,0,0,1-.525.524.518.518,0,0,1-.524-.524V156.549Z" transform="translate(-1907.898 -154.147)" fill="#fff"/>
      <path id="Path_208" data-name="Path 208" d="M2073.122,154.624a.532.532,0,0,1,.524-.524h7.855a.517.517,0,0,1,.524.524.522.522,0,0,1-.524.545h-7.312v6.045h6.394a.535.535,0,0,1,0,1.069h-6.394v6.023h7.312a.522.522,0,0,1,.524.545.517.517,0,0,1-.524.524h-7.9a.523.523,0,0,1-.479-.524V154.624Z" transform="translate(-1999.792 -153.881)" fill="#fff"/>
      <path id="Path_209" data-name="Path 209" d="M2167.387,169.376h-.043a.532.532,0,0,1-.524-.524V154.624a.535.535,0,0,1,1.069,0v13.685h7.31a.535.535,0,1,1,0,1.069h-7.812Z" transform="translate(-2075.31 -153.881)" fill="#fff"/>
      <path id="Path_210" data-name="Path 210" d="M2248.69,154.624a.532.532,0,0,1,.523-.524h3.406a3.794,3.794,0,0,1,2.334,6.788,4.355,4.355,0,0,1-1.374,8.49h-4.388a.514.514,0,0,1-.5-.524Zm3.927,6a2.728,2.728,0,1,0,0-5.457h-2.857v5.457Zm.961,7.681a3.295,3.295,0,1,0,0-6.59h-3.818v6.59Z" transform="translate(-2141.293 -153.881)" fill="#fff"/>
      <path id="Path_211" data-name="Path 211" d="M2339.636,152.97a7.756,7.756,0,1,1-7.376,7.747A7.526,7.526,0,0,1,2339.636,152.97Zm0,14.426a6.677,6.677,0,1,0-6.307-6.677A6.495,6.495,0,0,0,2339.636,167.4Z" transform="translate(-2208.646 -152.97)" fill="#fff"/>
      <path id="Path_212" data-name="Path 212" d="M2442.13,154.624a.535.535,0,0,1,1.069,0V163.2a5.107,5.107,0,1,0,10.215,0v-8.577a.535.535,0,0,1,1.069,0V163.2a6.176,6.176,0,1,1-12.351,0v-8.577Z" transform="translate(-2297.196 -153.881)" fill="#fff"/>
      <path id="Path_213" data-name="Path 213" d="M2557.33,165.927a2.753,2.753,0,0,0-1.244-2.313,4.912,4.912,0,0,0-1.768-.765,1.141,1.141,0,0,0-.108-.043h-3.71v6.045a.537.537,0,0,1-.545.524.531.531,0,0,1-.523-.524V154.624a.54.54,0,0,1,.48-.524h4.365a4.365,4.365,0,0,1,1.833,8.315,1.669,1.669,0,0,0,.217.109,3.863,3.863,0,0,1,2.051,3.4,5.866,5.866,0,0,0,.2,1.768.785.785,0,0,0,.218.371.573.573,0,0,1,.59.349.594.594,0,0,1-.349.7,2.383,2.383,0,0,1-.263.021h-.042a1.216,1.216,0,0,1-.981-.7A5.386,5.386,0,0,1,2557.33,165.927Zm-3.057-10.758H2550.5v6.592h3.862a3.3,3.3,0,0,0-.086-6.592Z" transform="translate(-2383.674 -153.881)" fill="#fff"/>
      <path id="Path_214" data-name="Path 214" d="M2642.815,156.613V169.12a.524.524,0,0,1-1.048,0V155.11a.53.53,0,0,1,.2-.59.544.544,0,0,1,.742.132l9.252,12.833V155.046a.535.535,0,0,1,1.07,0v14.076a.536.536,0,0,1-.545.524.514.514,0,0,1-.416-.2c-.021-.021-.066-.045-.087-.087Z" transform="translate(-2458.073 -154.147)" fill="#fff"/>
      <path id="Path_215" data-name="Path 215" d="M2745.68,154.624a.532.532,0,0,1,.523-.524h7.855a.535.535,0,0,1,0,1.069h-7.312v6.045h6.394a.535.535,0,0,1,0,1.069h-6.394v6.023h7.312a.523.523,0,0,1,.524.545.517.517,0,0,1-.524.524h-7.9a.523.523,0,0,1-.479-.524Z" transform="translate(-2541.842 -153.881)" fill="#fff"/>
    </g>
  </g>
</svg>
