<svg xmlns="http://www.w3.org/2000/svg" width="640.219" height="58" viewBox="0 0 640.219 58">
  <g id="Group_278" data-name="Group 278" transform="translate(-254 -21.216)">
    <path id="Path_144" data-name="Path 144" d="M29.266,1C13.1,1,0,13.573,0,29.734a29.266,29.266,0,0,0,58.532,0C58.532,13.573,45.427,1,29.266,1ZM47.384,25.375H45.5l-.069,2.036-.813.787.617,10.42-6.417.84.67-11.265-.813-.787-.069-2.036H32.822l-.064,2.036-.819.787.718,12.068-6.619.867.771-12.934L26,27.406l-.069-2.036H20.143l-.064,2.036-.813.787.819,13.716-6.815.893.872-14.609-.813-.787-.069-2.036H11.483V23.737H11.5l17.932-9.856,17.937,9.856h.021v1.637Z" transform="translate(544.944 20.216)" fill="#fff"/>
    <g id="Group_26" data-name="Group 26" transform="translate(254 42.471)">
      <path id="Path_2" data-name="Path 2" d="M129.24,37.415a9.855,9.855,0,0,1,9.975-9.755,9.965,9.965,0,0,1,6.16,2.109,1.555,1.555,0,0,1,.3,2.192,1.575,1.575,0,0,1-2.192.243,6.993,6.993,0,0,0-4.271-1.457,6.683,6.683,0,0,0-4.863,1.972,6.412,6.412,0,0,0,0,9.353,6.7,6.7,0,0,0,4.863,1.972,7.438,7.438,0,0,0,3.7-1.024v-3.7h-3.869a1.561,1.561,0,0,1-1.54-1.54,1.522,1.522,0,0,1,1.54-1.517h5.386A1.529,1.529,0,0,1,146,37.78v5.97a2.176,2.176,0,0,1-.084.463,1.03,1.03,0,0,0-.053.137v.03a1.3,1.3,0,0,1-.516.652,9.974,9.974,0,0,1-16.1-7.616Z" transform="translate(-129.24 -27.652)" fill="#fff"/>
      <path id="Path_3" data-name="Path 3" d="M171.734,45.044a1.483,1.483,0,0,1-.948,1.889,2.2,2.2,0,0,1-.592.083h-.03a1.963,1.963,0,0,1-1.054-.3,2.674,2.674,0,0,1-.865-.948,7.259,7.259,0,0,1-.569-3.247,2.291,2.291,0,0,0-.326-1.161,2.435,2.435,0,0,0-.812-.781,5.287,5.287,0,0,0-1.517-.652h-3.186v5.864a1.506,1.506,0,0,1-1.517,1.487,1.484,1.484,0,0,1-1.487-1.487V29.857a1.47,1.47,0,0,1,1.487-1.487h4.84a5.782,5.782,0,0,1,5.788,5.811,5.718,5.718,0,0,1-2.109,4.43,4.282,4.282,0,0,1,.948,1,5.128,5.128,0,0,1,.9,2.921,6.678,6.678,0,0,0,.106,1.593A1.448,1.448,0,0,1,171.734,45.044Zm-3.778-10.863a2.788,2.788,0,0,0-2.784-2.814h-3.323v5.568h3.323A2.775,2.775,0,0,0,167.956,34.181Z" transform="translate(-136.383 -27.824)" fill="#fff"/>
      <path id="Path_4" data-name="Path 4" d="M182.33,45.8V29.857a1.47,1.47,0,0,1,1.487-1.487h8.837a1.5,1.5,0,0,1,1.487,1.487,1.531,1.531,0,0,1-1.487,1.517h-7.328V36.32h6.3a1.5,1.5,0,0,1,0,3h-6.3V44.3h7.328a1.5,1.5,0,0,1,0,3H183.9c-.053,0-.053-.03-.053-.03l-.03.03A1.507,1.507,0,0,1,182.33,45.8Z" transform="translate(-142.056 -27.824)" fill="#fff"/>
      <path id="Path_5" data-name="Path 5" d="M204.18,45.8V29.857a1.47,1.47,0,0,1,1.487-1.487H214.5a1.5,1.5,0,0,1,1.487,1.487,1.531,1.531,0,0,1-1.487,1.517h-7.328V36.32h6.3a1.5,1.5,0,0,1,0,3h-6.3V44.3H214.5a1.5,1.5,0,0,1,0,3H205.75c-.053,0-.053-.03-.053-.03l-.03.03A1.5,1.5,0,0,1,204.18,45.8Z" transform="translate(-147.331 -27.824)" fill="#fff"/>
      <path id="Path_6" data-name="Path 6" d="M226.02,45.843V30.027a1.487,1.487,0,1,1,2.974,0v7.76L237.748,29a1.475,1.475,0,0,1,2.109,0,1.516,1.516,0,0,1,0,2.109l-5.947,5.917,6,7.867a1.442,1.442,0,0,1-.22,2.079,1.374,1.374,0,0,1-.948.349,1.469,1.469,0,0,1-1.108-.539l-5.841-7.647L228.979,42v3.838a1.479,1.479,0,1,1-2.958,0Z" transform="translate(-152.604 -27.865)" fill="#fff"/>
      <path id="Path_7" data-name="Path 7" d="M261.09,37.383a9.927,9.927,0,0,1,9.922-9.733,10.077,10.077,0,0,1,6.243,2.109,1.55,1.55,0,0,1-1.889,2.458,6.758,6.758,0,0,0-4.354-1.487,7.135,7.135,0,0,0-4.863,1.95,6.683,6.683,0,0,0-1.972,4.7,6.589,6.589,0,0,0,1.972,4.7,7.149,7.149,0,0,0,4.863,1.95,6.817,6.817,0,0,0,4.354-1.487,1.639,1.639,0,0,1,2.162.3,1.593,1.593,0,0,1-.273,2.162,10.093,10.093,0,0,1-6.243,2.109A9.887,9.887,0,0,1,261.09,37.383Z" transform="translate(-161.07 -27.65)" fill="#fff"/>
      <path id="Path_8" data-name="Path 8" d="M302.893,30.55a9.919,9.919,0,0,1,0,13.67,8.842,8.842,0,0,1-6.463,2.89,9.136,9.136,0,0,1-6.622-2.89,10.062,10.062,0,0,1,0-13.67,9.021,9.021,0,0,1,6.622-2.89A8.7,8.7,0,0,1,302.893,30.55Zm-.349,6.835a7.02,7.02,0,0,0-1.836-4.734,5.83,5.83,0,0,0-8.648,0,6.863,6.863,0,0,0-1.836,4.734,6.781,6.781,0,0,0,1.836,4.7,5.924,5.924,0,0,0,4.377,1.95,5.843,5.843,0,0,0,4.271-1.95A6.921,6.921,0,0,0,302.545,37.385Z" transform="translate(-167.356 -27.652)" fill="#fff"/>
      <path id="Path_9" data-name="Path 9" d="M332.657,29.857V45.8a1.526,1.526,0,0,1-1.517,1.487,1.484,1.484,0,0,1-1.487-1.487V34.424l-3.891,5.409a1.479,1.479,0,0,1-1.214.622h-.061a1.535,1.535,0,0,1-1.244-.622l-3.869-5.409V45.8a1.5,1.5,0,0,1-3,0V29.857a1.5,1.5,0,0,1,1.487-1.487h.084a1.479,1.479,0,0,1,1.191.622l5.378,7.457,5.378-7.457a1.479,1.479,0,0,1,1.214-.622h.03A1.538,1.538,0,0,1,332.657,29.857Z" transform="translate(-174.415 -27.824)" fill="#fff"/>
      <path id="Path_10" data-name="Path 10" d="M361.6,29.857V45.8a1.526,1.526,0,0,1-1.517,1.487,1.484,1.484,0,0,1-1.487-1.487V34.424L354.7,39.832a1.479,1.479,0,0,1-1.214.622h-.061a1.534,1.534,0,0,1-1.244-.622l-3.869-5.409V45.8a1.5,1.5,0,0,1-3,0V29.857A1.5,1.5,0,0,1,346.8,28.37h.083a1.479,1.479,0,0,1,1.191.622l5.378,7.457,5.378-7.457a1.479,1.479,0,0,1,1.214-.622h.03A1.543,1.543,0,0,1,361.6,29.857Z" transform="translate(-181.401 -27.824)" fill="#fff"/>
      <path id="Path_11" data-name="Path 11" d="M381.113,47.289a7.8,7.8,0,0,1-7.813-7.813V29.857a1.47,1.47,0,0,1,1.487-1.487,1.51,1.51,0,0,1,1.517,1.487v9.627a4.81,4.81,0,0,0,9.619,0V29.857a1.491,1.491,0,0,1,1.517-1.487,1.466,1.466,0,0,1,1.487,1.487v9.627A7.815,7.815,0,0,1,381.113,47.289Z" transform="translate(-188.158 -27.824)" fill="#fff"/>
      <path id="Path_12" data-name="Path 12" d="M402.942,45.86a1.472,1.472,0,1,1-2.943,0V30.127a1.454,1.454,0,0,1,.592-1.244,1.485,1.485,0,0,1,2.056.326l8.732,12.084V30.158a1.472,1.472,0,0,1,1.456-1.457,1.493,1.493,0,0,1,1.487,1.457v15.7a1.461,1.461,0,0,1-2.594.948.84.84,0,0,1-.137-.159l-8.648-12Z" transform="translate(-194.603 -27.882)" fill="#fff"/>
      <path id="Path_13" data-name="Path 13" d="M426.44,29.857a1.47,1.47,0,0,1,1.487-1.487,1.51,1.51,0,0,1,1.517,1.487V45.8a1.51,1.51,0,0,1-1.517,1.487A1.47,1.47,0,0,1,426.44,45.8Z" transform="translate(-200.987 -27.824)" fill="#fff"/>
      <path id="Path_14" data-name="Path 14" d="M449.223,31.364h-4.3V45.8a1.487,1.487,0,1,1-2.974,0V31.364h-4.271a1.51,1.51,0,0,1-1.487-1.517,1.47,1.47,0,0,1,1.487-1.487h11.546a1.484,1.484,0,0,1,1.487,1.487A1.521,1.521,0,0,1,449.223,31.364Z" transform="translate(-203.34 -27.821)" fill="#fff"/>
      <path id="Path_15" data-name="Path 15" d="M474.016,30.974l-5.538,7.593v7.3a1.47,1.47,0,0,1-1.487,1.487,1.5,1.5,0,0,1-1.487-1.487v-7.3l-5.485-7.593a1.421,1.421,0,0,1,.3-2.056,1.445,1.445,0,0,1,2.056.326l4.62,6.327,4.62-6.327a1.483,1.483,0,0,1,2.079-.326A1.5,1.5,0,0,1,474.016,30.974Z" transform="translate(-209.017 -27.886)" fill="#fff"/>
    </g>
    <g id="Group_27" data-name="Group 27" transform="translate(630.699 42.471)">
      <path id="Path_16" data-name="Path 16" d="M138.373,62.98c5.052,0,9.027,4.3,9.058,9.6-.03,5.295-4,9.6-9.058,9.6a9.608,9.608,0,0,1,0-19.192Zm0,17.865c4.165,0,7.677-3.649,7.707-8.269a7.776,7.776,0,1,0-7.707,8.269Z" transform="translate(-129.24 -62.98)" fill="#fff"/>
      <path id="Path_17" data-name="Path 17" d="M167.758,63.982a.662.662,0,0,1,.622-.652h9.786a.664.664,0,0,1,0,1.328h-9.088v7.487h7.95a.664.664,0,1,1,0,1.328h-7.95v8.14a.664.664,0,0,1-1.328,0V63.982Z" transform="translate(-138.537 -63.064)" fill="#fff"/>
      <path id="Path_18" data-name="Path 18" d="M227.435,66.063l-6.054,8.405a.615.615,0,0,1-.539.3h-.053a.622.622,0,0,1-.569-.3l-6.054-8.382V81.629a.664.664,0,0,1-1.328,0V64.114a.613.613,0,0,1,.273-.516c0-.03.03-.03.053-.053a.68.68,0,0,1,.918.159l6.729,9.323,6.706-9.323a.676.676,0,0,1,.918-.159,1.226,1.226,0,0,1,.19.22.882.882,0,0,1,.106.349V81.629a.662.662,0,0,1-.652.652.643.643,0,0,1-.652-.652V66.063Z" transform="translate(-149.422 -63.09)" fill="#fff"/>
      <path id="Path_19" data-name="Path 19" d="M248.97,63.982a.662.662,0,0,1,.652-.652h9.733a.664.664,0,0,1,0,1.328H250.3v7.487h7.92a.664.664,0,0,1,0,1.328H250.3v7.457h9.057a.664.664,0,0,1,0,1.328h-9.786a.647.647,0,0,1-.592-.652V63.982Z" transform="translate(-158.144 -63.064)" fill="#fff"/>
      <path id="Path_20" data-name="Path 20" d="M279.355,82.257H279.3a.662.662,0,0,1-.652-.652V63.982a.664.664,0,0,1,1.327,0V80.929h9.058a.664.664,0,1,1,0,1.328Z" transform="translate(-165.309 -63.064)" fill="#fff"/>
      <path id="Path_21" data-name="Path 21" d="M304.6,63.982a.662.662,0,0,1,.652-.652h4.218a4.7,4.7,0,0,1,2.89,8.413,5.393,5.393,0,0,1-1.707,10.514h-5.439a.637.637,0,0,1-.622-.652V63.982Zm4.863,7.434a3.38,3.38,0,0,0,0-6.759h-3.543v6.759Zm1.191,9.513a4.081,4.081,0,0,0,0-8.162h-4.734v8.162Z" transform="translate(-171.571 -63.064)" fill="#fff"/>
      <path id="Path_22" data-name="Path 22" d="M340.213,62.98c5.052,0,9.027,4.3,9.058,9.6-.03,5.295-4,9.6-9.058,9.6a9.608,9.608,0,0,1,0-19.192Zm0,17.865c4.165,0,7.677-3.649,7.707-8.269a7.776,7.776,0,1,0-7.707,8.269Z" transform="translate(-177.966 -62.98)" fill="#fff"/>
      <path id="Path_23" data-name="Path 23" d="M365.89,63.982a.664.664,0,0,1,1.327,0V74.6a6.323,6.323,0,1,0,12.646,0V63.982a.664.664,0,0,1,1.328,0V74.6a7.65,7.65,0,0,1-15.3,0Z" transform="translate(-186.369 -63.064)" fill="#fff"/>
      <path id="Path_24" data-name="Path 24" d="M409.673,77.986a3.422,3.422,0,0,0-1.54-2.867,6.041,6.041,0,0,0-2.192-.948c-.083-.03-.106-.053-.137-.053h-4.6V81.6a.664.664,0,0,1-1.328,0V63.982a.676.676,0,0,1,.592-.652h5.409a5.407,5.407,0,0,1,2.268,10.3,2.275,2.275,0,0,0,.273.137,4.784,4.784,0,0,1,2.541,4.218,7.272,7.272,0,0,0,.243,2.192.966.966,0,0,0,.273.463.7.7,0,0,1,.728.432.737.737,0,0,1-.432.865,2.554,2.554,0,0,1-.326.03H411.4a1.511,1.511,0,0,1-1.214-.865A6.754,6.754,0,0,1,409.673,77.986Zm-3.785-13.328h-4.673V72.82H406a4.082,4.082,0,0,0-.114-8.162Z" transform="translate(-194.575 -63.064)" fill="#fff"/>
      <path id="Path_25" data-name="Path 25" d="M430.465,66.149v15.49a.652.652,0,1,1-1.3,0V64.283a.647.647,0,0,1,.243-.728.676.676,0,0,1,.918.159l11.462,15.892V64.2a.664.664,0,0,1,1.327,0V81.632a.667.667,0,0,1-.675.652.637.637,0,0,1-.516-.243c-.03-.03-.083-.053-.106-.106Z" transform="translate(-201.636 -63.092)" fill="#fff"/>
      <path id="Path_26" data-name="Path 26" d="M462.07,63.982a.662.662,0,0,1,.653-.652h9.733a.664.664,0,0,1,0,1.328H463.4v7.487h7.92a.664.664,0,0,1,0,1.328H463.4v7.457h9.058a.664.664,0,0,1,0,1.328h-9.786a.647.647,0,0,1-.592-.652V63.982Z" transform="translate(-209.588 -63.064)" fill="#fff"/>
    </g>
  </g>
</svg>
