<svg id="Group_162" data-name="Group 162" xmlns="http://www.w3.org/2000/svg" width="279.835" height="47.801" viewBox="0 0 279.835 47.801">
  <g id="Group_18" data-name="Group 18">
    <g id="Group_17" data-name="Group 17">
      <path id="Path_111" data-name="Path 111" d="M780.417,310.09A78.623,78.623,0,0,1,797,311.855a22.394,22.394,0,1,0-34.541.306A78.563,78.563,0,0,1,780.417,310.09Zm-14.424-16.916h.013l13.722-7.544,13.724,7.544h.015v1.248h-1.44l-.052,1.556-.623.6.473,7.975-4.912.643.513-8.618-.621-.6-.052-1.556h-4.428l-.05,1.556-.624.6.55,9.235-5.063.662.588-9.9-.622-.6-.051-1.556h-4.428l-.051,1.556-.624.6.625,10.5-5.217.683.667-11.178-.623-.6-.052-1.556h-1.357Z" transform="translate(-757.211 -275.363)" fill="#721016"/>
    </g>
  </g>
  <g id="Group_20" data-name="Group 20" transform="translate(8.151 38.667)">
    <g id="Group_19" data-name="Group 19" transform="translate(0 0)">
      <path id="Path_112" data-name="Path 112" d="M778.281,377.707h4.039a.587.587,0,1,1,0,1.174h-5.212v-3.827a1.175,1.175,0,0,1,1.327-1.327h3.3v-2.806h-4.038a.587.587,0,1,1,0-1.174h3.9a1.211,1.211,0,0,1,1.315,1.374v2.406a1.211,1.211,0,0,1-1.315,1.374h-3.311Z" transform="translate(-777.107 -369.747)" fill="#721016"/>
      <path id="Path_113" data-name="Path 113" d="M799.9,369.747a1.178,1.178,0,0,1,1.174,1.174v6.786a1.155,1.155,0,0,1-1.174,1.174h-3.452a1.156,1.156,0,0,1-1.174-1.174v-6.786a1.177,1.177,0,0,1,1.174-1.174Zm0,7.96v-6.786h-3.452v6.786Z" transform="translate(-787.831 -369.747)" fill="#721016"/>
      <path id="Path_114" data-name="Path 114" d="M814.616,377.707h4.039a.587.587,0,1,1,0,1.174h-5.212v-3.827a1.176,1.176,0,0,1,1.327-1.327h3.3v-2.806h-4.038a.587.587,0,0,1,0-1.174h3.9a1.211,1.211,0,0,1,1.315,1.374v2.406a1.211,1.211,0,0,1-1.315,1.374h-3.311Z" transform="translate(-798.556 -369.747)" fill="#721016"/>
      <path id="Path_115" data-name="Path 115" d="M836.234,369.747a1.178,1.178,0,0,1,1.174,1.174v6.786a1.155,1.155,0,0,1-1.174,1.174h-3.452a1.156,1.156,0,0,1-1.174-1.174v-6.786a1.177,1.177,0,0,1,1.174-1.174Zm0,7.96v-6.786h-3.452v6.786Z" transform="translate(-809.281 -369.747)" fill="#721016"/>
    </g>
  </g>
  <g id="Group_22" data-name="Group 22" transform="translate(58.625 6.273)">
    <g id="Group_21" data-name="Group 21">
      <path id="Path_116" data-name="Path 116" d="M885.84,304.114a8.771,8.771,0,0,1,8.878-8.687A8.9,8.9,0,0,1,900.2,297.3a1.386,1.386,0,0,1,.265,1.949,1.4,1.4,0,0,1-1.949.216,6.252,6.252,0,0,0-3.8-1.3,5.969,5.969,0,0,0-4.331,1.757,5.7,5.7,0,0,0,0,8.325,5.966,5.966,0,0,0,4.331,1.756,6.637,6.637,0,0,0,3.3-.914v-3.3h-3.441a1.386,1.386,0,0,1-1.371-1.372,1.35,1.35,0,0,1,1.371-1.347h4.788a1.356,1.356,0,0,1,1.4,1.347v5.318a2.065,2.065,0,0,1-.072.409c-.024.048-.024.072-.048.12v.024a1.139,1.139,0,0,1-.457.577,8.872,8.872,0,0,1-5.462,1.877A8.746,8.746,0,0,1,885.84,304.114Z" transform="translate(-885.655 -295.427)" fill="#721016"/>
      <path id="Path_117" data-name="Path 117" d="M930.971,311.065a1.326,1.326,0,0,1-.842,1.684,2.127,2.127,0,0,1-.529.072h-.024a1.755,1.755,0,0,1-.939-.264,2.367,2.367,0,0,1-.77-.843,6.46,6.46,0,0,1-.505-2.887,2.042,2.042,0,0,0-.289-1.034,2.237,2.237,0,0,0-.723-.7,4.585,4.585,0,0,0-1.347-.577h-2.839v5.222a1.341,1.341,0,0,1-1.348,1.323,1.319,1.319,0,0,1-1.324-1.323v-14.2a1.3,1.3,0,0,1,1.324-1.324h4.307a5.146,5.146,0,0,1,3.273,9.12,3.722,3.722,0,0,1,.842.89,4.557,4.557,0,0,1,.794,2.6,6.071,6.071,0,0,0,.1,1.42A1.292,1.292,0,0,1,930.971,311.065Zm-3.368-9.673a2.48,2.48,0,0,0-2.478-2.5h-2.959v4.957h2.959A2.47,2.47,0,0,0,927.6,301.391Z" transform="translate(-898.835 -295.737)" fill="#721016"/>
      <path id="Path_118" data-name="Path 118" d="M946.345,311.738v-14.2a1.305,1.305,0,0,1,1.324-1.324h7.868a1.335,1.335,0,0,1,1.323,1.324,1.356,1.356,0,0,1-1.323,1.347h-6.521v4.4h5.606a1.336,1.336,0,0,1,0,2.671h-5.606v4.427h6.521a1.335,1.335,0,0,1,0,2.671h-7.8c-.048,0-.048-.024-.048-.024l-.024.024A1.32,1.32,0,0,1,946.345,311.738Z" transform="translate(-908.066 -295.737)" fill="#721016"/>
      <path id="Path_119" data-name="Path 119" d="M971.378,311.738v-14.2a1.3,1.3,0,0,1,1.323-1.324h7.868a1.336,1.336,0,0,1,1.324,1.324,1.357,1.357,0,0,1-1.324,1.347h-6.521v4.4h5.607a1.336,1.336,0,0,1,0,2.671h-5.607v4.427h6.521a1.335,1.335,0,0,1,0,2.671h-7.8c-.048,0-.048-.024-.048-.024l-.024.024A1.319,1.319,0,0,1,971.378,311.738Z" transform="translate(-917.341 -295.737)" fill="#721016"/>
      <path id="Path_120" data-name="Path 120" d="M996.41,311.816V297.74a1.323,1.323,0,0,1,2.647,0v6.906l7.8-7.82a1.307,1.307,0,0,1,1.877,0,1.352,1.352,0,0,1,0,1.877l-5.293,5.27,5.341,7a1.288,1.288,0,0,1-.192,1.853,1.223,1.223,0,0,1-.842.313,1.3,1.3,0,0,1-.987-.481l-5.2-6.809-2.5,2.55v3.417a1.323,1.323,0,0,1-2.647,0Z" transform="translate(-926.59 -295.815)" fill="#721016"/>
      <path id="Path_121" data-name="Path 121" d="M1038.131,311.738v-14.2a1.3,1.3,0,0,1,1.323-1.324,1.325,1.325,0,0,1,1.347,1.324v5.775h6.232v-5.775a1.3,1.3,0,0,1,1.323-1.324,1.325,1.325,0,0,1,1.348,1.324v14.2a1.325,1.325,0,0,1-1.348,1.323,1.3,1.3,0,0,1-1.323-1.323v-5.775H1040.8v5.775a1.325,1.325,0,0,1-1.347,1.323A1.3,1.3,0,0,1,1038.131,311.738Z" transform="translate(-942.057 -295.737)" fill="#721016"/>
      <path id="Path_122" data-name="Path 122" d="M1064.469,297.542a1.3,1.3,0,0,1,1.323-1.324,1.34,1.34,0,0,1,1.348,1.324v14.2a1.34,1.34,0,0,1-1.348,1.323,1.3,1.3,0,0,1-1.323-1.323Z" transform="translate(-951.972 -295.737)" fill="#721016"/>
      <path id="Path_123" data-name="Path 123" d="M1075.214,308.565a1.254,1.254,0,0,1,1.756-.168,7.847,7.847,0,0,0,4.6,1.852,5.18,5.18,0,0,0,3.007-.89,2.165,2.165,0,0,0,1.035-1.733,1.379,1.379,0,0,0-.216-.77,2.284,2.284,0,0,0-.722-.722,9.622,9.622,0,0,0-3.3-1.131h-.049a13.045,13.045,0,0,1-3.1-.938,5.185,5.185,0,0,1-2.238-1.877,3.694,3.694,0,0,1-.554-1.973,4.448,4.448,0,0,1,1.925-3.513,7.114,7.114,0,0,1,4.163-1.276,9.433,9.433,0,0,1,5.245,1.925,1.24,1.24,0,0,1,.337,1.709,1.215,1.215,0,0,1-1.708.361,6.982,6.982,0,0,0-3.874-1.54,4.6,4.6,0,0,0-2.7.818,1.916,1.916,0,0,0-.914,1.517,1.164,1.164,0,0,0,.169.673,2.3,2.3,0,0,0,.649.625,8.291,8.291,0,0,0,3.008,1.059h.047a14.121,14.121,0,0,1,3.321,1.01,5.628,5.628,0,0,1,2.407,2,3.911,3.911,0,0,1,.577,2.045,4.655,4.655,0,0,1-2.07,3.729,7.519,7.519,0,0,1-4.451,1.372,10.377,10.377,0,0,1-6.16-2.406A1.281,1.281,0,0,1,1075.214,308.565Z" transform="translate(-955.663 -295.427)" fill="#721016"/>
      <path id="Path_124" data-name="Path 124" d="M1111.5,298.889h-3.826v12.849a1.3,1.3,0,0,1-1.323,1.323,1.319,1.319,0,0,1-1.323-1.323V298.889h-3.8a1.34,1.34,0,0,1-1.323-1.347,1.3,1.3,0,0,1,1.323-1.324H1111.5a1.32,1.32,0,0,1,1.323,1.324A1.356,1.356,0,0,1,1111.5,298.889Z" transform="translate(-964.905 -295.737)" fill="#721016"/>
      <path id="Path_125" data-name="Path 125" d="M1138.29,298a8.841,8.841,0,0,1,0,12.175,7.883,7.883,0,0,1-5.751,2.574,8.12,8.12,0,0,1-5.894-2.574,8.969,8.969,0,0,1,0-12.175,8.028,8.028,0,0,1,5.894-2.575A7.793,7.793,0,0,1,1138.29,298Zm-.313,6.087a6.233,6.233,0,0,0-1.636-4.21,5.19,5.19,0,0,0-7.7,0,6.115,6.115,0,0,0-1.637,4.21,6.014,6.014,0,0,0,1.637,4.187,5.144,5.144,0,0,0,7.7,0A6.128,6.128,0,0,0,1137.977,304.09Z" transform="translate(-973.833 -295.427)" fill="#721016"/>
      <path id="Path_126" data-name="Path 126" d="M1170.025,311.065a1.329,1.329,0,0,1-.843,1.684,2.136,2.136,0,0,1-.53.072h-.024a1.755,1.755,0,0,1-.938-.264,2.36,2.36,0,0,1-.77-.843,6.47,6.47,0,0,1-.505-2.887,2.027,2.027,0,0,0-.289-1.034,2.219,2.219,0,0,0-.722-.7,4.589,4.589,0,0,0-1.347-.577h-2.84v5.222a1.34,1.34,0,0,1-1.347,1.323,1.319,1.319,0,0,1-1.322-1.323v-14.2a1.3,1.3,0,0,1,1.322-1.324h4.308a5.146,5.146,0,0,1,3.271,9.12,3.73,3.73,0,0,1,.843.89,4.553,4.553,0,0,1,.794,2.6,6.126,6.126,0,0,0,.1,1.42A1.3,1.3,0,0,1,1170.025,311.065Zm-3.369-9.673a2.48,2.48,0,0,0-2.478-2.5h-2.961v4.957h2.961A2.47,2.47,0,0,0,1166.657,301.391Z" transform="translate(-986.659 -295.737)" fill="#721016"/>
      <path id="Path_127" data-name="Path 127" d="M1193.888,298.592l-4.933,6.761v6.5a1.3,1.3,0,0,1-1.324,1.323,1.335,1.335,0,0,1-1.322-1.323v-6.5l-4.885-6.761a1.265,1.265,0,0,1,.264-1.829,1.284,1.284,0,0,1,1.829.289l4.114,5.63,4.115-5.63a1.319,1.319,0,0,1,2.142,1.54Z" transform="translate(-994.235 -295.849)" fill="#721016"/>
      <path id="Path_128" data-name="Path 128" d="M1229.251,304.254a2.917,2.917,0,0,1-1.035,2.31,1.3,1.3,0,0,0-.265.145,4.54,4.54,0,0,1,.025.577,5.787,5.787,0,0,1-11.574,0,5.668,5.668,0,0,1,1.877-4.235,4.414,4.414,0,0,1-.674-2.358,4.475,4.475,0,1,1,8.951,0,1.305,1.305,0,0,1-1.324,1.324,1.341,1.341,0,0,1-1.348-1.324,1.8,1.8,0,1,0-2.839,1.468,1.359,1.359,0,0,1,.361,1.781h-.024c0,.024-.023.048-.023.1a3.034,3.034,0,0,1-.265.265c-.024.024-.048.048-.073.048a.169.169,0,0,1-.072.048c-.048.024-.072.048-.121.072a3.148,3.148,0,0,0-1.756,2.815,3.116,3.116,0,0,0,6.232,0v-.144c-1.251.024-1.708.313-1.828.457a.638.638,0,0,0-.193.53,1.9,1.9,0,0,0,.024.264,1.354,1.354,0,0,1-.914,1.661,1.66,1.66,0,0,1-.361.048,1.288,1.288,0,0,1-1.276-.962,2.688,2.688,0,0,1-.144-1.011,3.251,3.251,0,0,1,.986-2.431,5.219,5.219,0,0,1,3.754-1.226c.265,0,.53,0,.794.024h.1a.993.993,0,0,0,.264-.024.187.187,0,0,0,.073-.048v-.169a2.383,2.383,0,0,0-.024-.36,1.29,1.29,0,0,1,.986-1.588,1.312,1.312,0,0,1,1.588,1.01A3.145,3.145,0,0,1,1229.251,304.254Z" transform="translate(-1008.042 -295.737)" fill="#721016"/>
      <path id="Path_129" data-name="Path 129" d="M893.372,333.506a7.987,7.987,0,0,1,4.865,1.657.526.526,0,0,1,.086.753.5.5,0,0,1-.732.108,6.863,6.863,0,0,0-4.219-1.464,6.59,6.59,0,1,0,0,13.175,6.407,6.407,0,0,0,4.177-1.464.522.522,0,0,1,.753.129.505.505,0,0,1-.065.753,7.972,7.972,0,0,1-4.865,1.636,7.644,7.644,0,1,1,0-15.284Z" transform="translate(-885.536 -311.051)" fill="#721016"/>
      <path id="Path_130" data-name="Path 130" d="M913.951,334.376a.527.527,0,0,1,1.054,0v8.46a5.038,5.038,0,0,0,10.075,0v-8.46a.527.527,0,0,1,1.054,0v8.46a6.092,6.092,0,1,1-12.184,0Z" transform="translate(-896.664 -311.189)" fill="#721016"/>
      <path id="Path_131" data-name="Path 131" d="M941.65,348.928h-.043a.524.524,0,0,1-.517-.517V334.376a.528.528,0,0,1,1.055,0v13.5h7.211a.528.528,0,1,1,0,1.055Z" transform="translate(-907.293 -311.189)" fill="#721016"/>
      <path id="Path_132" data-name="Path 132" d="M960.622,334.914H956.08a.528.528,0,0,1,0-1.055H966.2a.528.528,0,0,1,0,1.055h-4.542v13.5a.517.517,0,1,1-1.033,0Z" transform="translate(-911.477 -311.189)" fill="#721016"/>
      <path id="Path_133" data-name="Path 133" d="M980.439,334.376a.528.528,0,0,1,1.055,0v8.46a5.037,5.037,0,1,0,10.074,0v-8.46a.528.528,0,0,1,1.055,0v8.46a6.092,6.092,0,1,1-12.185,0Z" transform="translate(-920.681 -311.189)" fill="#721016"/>
      <path id="Path_134" data-name="Path 134" d="M1015.62,345.527a2.717,2.717,0,0,0-1.227-2.282,4.811,4.811,0,0,0-1.743-.753c-.065-.022-.086-.043-.108-.043h-3.659v5.963a.528.528,0,0,1-1.055,0V334.376a.533.533,0,0,1,.473-.517h4.305a4.305,4.305,0,0,1,1.809,8.2,2.054,2.054,0,0,0,.215.108,3.811,3.811,0,0,1,2.023,3.358,5.779,5.779,0,0,0,.193,1.744.783.783,0,0,0,.216.366.564.564,0,0,1,.581.344.586.586,0,0,1-.345.689,2.226,2.226,0,0,1-.258.022H1017a1.2,1.2,0,0,1-.969-.689A5.341,5.341,0,0,1,1015.62,345.527Zm-3.014-10.613h-3.724v6.5h3.81a3.251,3.251,0,0,0-.086-6.5Z" transform="translate(-930.854 -311.189)" fill="#721016"/>
      <path id="Path_135" data-name="Path 135" d="M1030.438,334.376a.525.525,0,0,1,.517-.517h7.749a.527.527,0,0,1,0,1.055h-7.211v5.963h6.307a.528.528,0,0,1,0,1.055h-6.307v5.941h7.211a.515.515,0,0,1,.517.538.51.51,0,0,1-.517.517h-7.792a.518.518,0,0,1-.474-.517Z" transform="translate(-939.249 -311.189)" fill="#721016"/>
      <path id="Path_136" data-name="Path 136" d="M1060.84,345.97a.459.459,0,0,1,.667-.065,8.255,8.255,0,0,0,4.951,1.938,5.659,5.659,0,0,0,3.315-.99,2.782,2.782,0,0,0,1.292-2.239,2.4,2.4,0,0,0-1.227-2.067,9.916,9.916,0,0,0-3.487-1.227h-.044a9.469,9.469,0,0,1-3.552-1.27,3.123,3.123,0,0,1-1.55-2.626,3.512,3.512,0,0,1,1.571-2.82,6.176,6.176,0,0,1,3.638-1.1,8.322,8.322,0,0,1,4.65,1.744.48.48,0,0,1,.13.667.456.456,0,0,1-.646.13,7.482,7.482,0,0,0-4.133-1.593,5.373,5.373,0,0,0-3.078.9,2.619,2.619,0,0,0-1.185,2.067,2.183,2.183,0,0,0,1.119,1.829,8.8,8.8,0,0,0,3.23,1.141h.043a10.317,10.317,0,0,1,3.832,1.377,3.386,3.386,0,0,1,1.657,2.842,3.791,3.791,0,0,1-1.7,3.014,6.621,6.621,0,0,1-3.875,1.184,9.4,9.4,0,0,1-5.553-2.174A.5.5,0,0,1,1060.84,345.97Z" transform="translate(-950.436 -311.051)" fill="#721016"/>
      <path id="Path_137" data-name="Path 137" d="M1085.638,334.376a.525.525,0,0,1,.517-.517h7.75a.527.527,0,0,1,0,1.055h-7.211v5.963H1093a.528.528,0,0,1,0,1.055h-6.308v5.941h7.211a.515.515,0,0,1,.517.538.51.51,0,0,1-.517.517h-7.792a.518.518,0,0,1-.475-.517Z" transform="translate(-959.71 -311.189)" fill="#721016"/>
      <path id="Path_138" data-name="Path 138" d="M1118.246,336.052l-4.822,6.7a.5.5,0,0,1-.431.237h-.043a.49.49,0,0,1-.452-.237l-4.822-6.674v12.378a.524.524,0,0,1-.517.517.529.529,0,0,1-.539-.517V334.5a.49.49,0,0,1,.216-.41c0-.021.022-.021.044-.043a.542.542,0,0,1,.731.129l5.36,7.427,5.339-7.427a.538.538,0,0,1,.732-.129,1.124,1.124,0,0,1,.151.172.7.7,0,0,1,.086.28v13.95a.523.523,0,0,1-.516.517.51.51,0,0,1-.517-.517Z" transform="translate(-967.399 -311.23)" fill="#721016"/>
      <path id="Path_139" data-name="Path 139" d="M1136.734,334.376a.528.528,0,0,1,1.055,0v14.036a.528.528,0,0,1-1.055,0Z" transform="translate(-978.841 -311.189)" fill="#721016"/>
      <path id="Path_140" data-name="Path 140" d="M1148.4,336.117v12.335a.516.516,0,1,1-1.033,0V334.631a.52.52,0,0,1,.193-.581.539.539,0,0,1,.732.129l9.128,12.658V334.567a.527.527,0,0,1,1.054,0v13.885a.528.528,0,0,1-.538.517.5.5,0,0,1-.409-.194c-.022-.021-.065-.043-.086-.086Z" transform="translate(-982.521 -311.23)" fill="#721016"/>
      <path id="Path_141" data-name="Path 141" d="M1182.173,345.074h-6.868l-1.334,3.552a.531.531,0,0,1-.5.344c-.043,0-.129-.022-.194-.022a.549.549,0,0,1-.3-.688l5.231-13.972a.574.574,0,0,1,.517-.322.53.53,0,0,1,.516.322l5.231,13.972a.539.539,0,0,1-.28.688c-.086,0-.129.022-.193.022a.553.553,0,0,1-.5-.344Zm-6.479-1.055h6.091l-3.035-8.094Z" transform="translate(-991.024 -311.231)" fill="#721016"/>
      <path id="Path_142" data-name="Path 142" d="M1204.717,345.527a2.718,2.718,0,0,0-1.226-2.282,4.817,4.817,0,0,0-1.744-.753c-.065-.022-.086-.043-.108-.043h-3.659v5.963a.529.529,0,0,1-.539.517.524.524,0,0,1-.516-.517V334.376a.533.533,0,0,1,.474-.517h4.3a4.305,4.305,0,0,1,1.809,8.2,1.986,1.986,0,0,0,.215.108,3.811,3.811,0,0,1,2.023,3.358,5.791,5.791,0,0,0,.194,1.744.784.784,0,0,0,.215.366.564.564,0,0,1,.581.344.585.585,0,0,1-.345.689,2.2,2.2,0,0,1-.258.022h-.043a1.2,1.2,0,0,1-.969-.689A5.326,5.326,0,0,1,1204.717,345.527Zm-3.014-10.613h-3.724v6.5h3.81a3.251,3.251,0,0,0-.087-6.5Z" transform="translate(-1000.414 -311.189)" fill="#721016"/>
      <path id="Path_143" data-name="Path 143" d="M1218.339,345.97a.459.459,0,0,1,.667-.065,8.256,8.256,0,0,0,4.951,1.938,5.661,5.661,0,0,0,3.316-.99,2.782,2.782,0,0,0,1.291-2.239,2.4,2.4,0,0,0-1.227-2.067,9.924,9.924,0,0,0-3.487-1.227h-.044a9.461,9.461,0,0,1-3.551-1.27,3.122,3.122,0,0,1-1.55-2.626,3.512,3.512,0,0,1,1.571-2.82,6.175,6.175,0,0,1,3.638-1.1,8.321,8.321,0,0,1,4.65,1.744.48.48,0,0,1,.13.667.456.456,0,0,1-.646.13,7.483,7.483,0,0,0-4.134-1.593,5.375,5.375,0,0,0-3.078.9,2.619,2.619,0,0,0-1.184,2.067,2.183,2.183,0,0,0,1.119,1.829,8.8,8.8,0,0,0,3.23,1.141h.043a10.317,10.317,0,0,1,3.832,1.377,3.386,3.386,0,0,1,1.657,2.842,3.79,3.79,0,0,1-1.7,3.014,6.62,6.62,0,0,1-3.875,1.184,9.4,9.4,0,0,1-5.553-2.174A.5.5,0,0,1,1218.339,345.97Z" transform="translate(-1008.762 -311.051)" fill="#721016"/>
    </g>
  </g>
</svg>
