<svg xmlns="http://www.w3.org/2000/svg" width="52.386" height="51.91" viewBox="0 0 52.386 51.91">
  <path id="Path_237" data-name="Path 237" d="M26.193,1C11.729,1,0,12.253,0,26.717a26.193,26.193,0,0,0,52.386,0C52.386,12.253,40.658,1,26.193,1ZM42.409,22.816H40.724l-.062,1.822-.728.7.552,9.326-5.743.752.6-10.082-.728-.7-.062-1.822H29.376l-.057,1.822-.733.7.642,10.8-5.924.776.69-11.576-.728-.7-.062-1.822H18.028l-.057,1.822-.728.7.733,12.276-6.1.8.78-13.075-.728-.7-.062-1.822H10.277V21.35h.014l16.049-8.821L42.394,21.35h.019v1.465Z" transform="translate(0 -1)" fill="#1f4fa1"/>
</svg>
