<svg xmlns="http://www.w3.org/2000/svg" width="30.494" height="30.31" viewBox="0 0 30.494 30.31">
  <path id="Subtraction_4" data-name="Subtraction 4" d="M12.865,30.309h0a15.114,15.114,0,0,1-5.085-1.766A15.249,15.249,0,1,1,26.028,4.466,15.256,15.256,0,0,1,29.3,9.312a15.262,15.262,0,0,1-6.581,19.231,15.115,15.115,0,0,1-5.085,1.766V19.655h3.553l.676-4.408H17.629v-2.86A2.629,2.629,0,0,1,17.973,11a1.985,1.985,0,0,1,1.225-.886,3.507,3.507,0,0,1,.917-.112h1.922V6.254a23.76,23.76,0,0,0-3.412-.3c-3.607,0-5.76,2.218-5.76,5.932v3.359H8.993v4.408h3.871V30.309Z" fill="#1a4288"/>
</svg>
