<svg xmlns="http://www.w3.org/2000/svg" width="31.414" height="25.53" viewBox="0 0 31.414 25.53">
  <path id="Twitter-Logo.wine" d="M9.879,25.53c11.855,0,18.338-9.821,18.338-18.338q0-.418-.018-.833a13.107,13.107,0,0,0,3.215-3.337,12.85,12.85,0,0,1-3.7,1.015A6.469,6.469,0,0,0,30.546.472a12.926,12.926,0,0,1-4.093,1.564A6.45,6.45,0,0,0,15.471,7.914,18.3,18.3,0,0,1,2.186,1.18a6.45,6.45,0,0,0,2,8.6,6.4,6.4,0,0,1-2.919-.806c0,.027,0,.053,0,.082a6.447,6.447,0,0,0,5.171,6.318,6.433,6.433,0,0,1-2.911.111,6.452,6.452,0,0,0,6.021,4.476,12.929,12.929,0,0,1-8,2.759A13.091,13.091,0,0,1,0,22.635a18.244,18.244,0,0,0,9.88,2.9" fill="#1f4fa1"/>
</svg>
