<svg xmlns="http://www.w3.org/2000/svg" width="35.013" height="24.515" viewBox="0 0 35.013 24.515">
  <g id="g7433" transform="translate(0 0)">
    <path id="Subtraction_1" data-name="Subtraction 1" d="M17.506,24.515c-.109,0-10.961-.009-13.7-.75A4.379,4.379,0,0,1,.721,20.679,46.252,46.252,0,0,1,0,12.259,46.453,46.453,0,0,1,.721,3.836,4.483,4.483,0,0,1,3.808.722C6.515.008,17.4,0,17.506,0S28.5.009,31.206.75a4.389,4.389,0,0,1,3.086,3.086c.739,2.7.722,8.394.721,8.451a46.446,46.446,0,0,1-.721,8.422,4.389,4.389,0,0,1-3.086,3.086C28.5,24.507,17.615,24.515,17.506,24.515ZM14.017,7.009h0v10.5l9.113-5.248-9.113-5.25Z" transform="translate(0 0)" fill="#1f4fa1"/>
  </g>
</svg>
